<svg width="30" height="30" viewBox="0 0 30 30" fill="none" xmlns="http://www.w3.org/2000/svg">
<path d="M24.8778 3.24965H23.974V2.26356C23.974 1.0149 22.9888 0 21.7763 0C20.5631 0 19.5786 1.0149 19.5786 2.26356V3.24883H17.3233V2.26356C17.3233 1.0149 16.338 0 15.1256 0C13.9131 0 12.9279 1.0149 12.9279 2.26356V3.24883H10.6725V2.26356C10.6725 1.0149 9.68727 0 8.47482 0C7.26238 0 6.27711 1.0149 6.27711 2.26356V3.24883H5.12311C3.19455 3.24883 1.62488 4.8185 1.62488 6.74706V26.5018C1.62488 28.4303 3.19455 30 5.12311 30H24.8778C26.8072 30 28.376 28.4303 28.376 26.5018V6.74706C28.376 4.81933 26.8064 3.24965 24.8778 3.24965ZM20.8133 2.26356C20.8133 1.69644 21.2454 1.23467 21.7763 1.23467C22.3081 1.23467 22.7394 1.69644 22.7394 2.26356V6.29352C22.7394 6.86065 22.3081 7.32241 21.7763 7.32241C21.2454 7.32241 20.8133 6.86065 20.8133 6.29352V2.26356ZM14.1625 2.26356C14.1625 1.69644 14.5947 1.23467 15.1256 1.23467C15.6565 1.23467 16.0886 1.69644 16.0886 2.26356V6.29352C16.0886 6.86065 15.6565 7.32241 15.1256 7.32241C14.5947 7.32241 14.1625 6.86065 14.1625 6.29352V2.26356ZM7.51096 2.26356C7.51096 1.69644 7.94309 1.23467 8.474 1.23467C9.00491 1.23467 9.43704 1.69644 9.43704 2.26356V6.29352C9.43704 6.86065 9.00491 7.32241 8.474 7.32241C7.94309 7.32241 7.51096 6.86065 7.51096 6.29352V2.26356ZM26.3183 26.5026C26.3183 27.2969 25.6721 27.943 24.8778 27.943H5.12311C4.3288 27.943 3.68266 27.2969 3.68266 26.5026V8.39411H26.3183V26.5026Z" fill="#FF3838"/>
<path d="M9.31687 12.0388H5.53467V15.4046H9.31687V12.0388Z" fill="#FF3838"/>
<path d="M14.3658 12.0388H10.5828V15.4046H14.3658V12.0388Z" fill="#FF3838"/>
<path d="M19.4173 12.0388H15.6351V15.4046H19.4173V12.0388Z" fill="#FF3838"/>
<path d="M24.4663 12.0388H20.6832V15.4046H24.4663V12.0388Z" fill="#FF3838"/>
<path d="M9.31687 16.5314H5.53467V19.8946H9.31687V16.5314Z" fill="#FF3838"/>
<path d="M14.3658 16.5314H10.5828V19.8946H14.3658V16.5314Z" fill="#FF3838"/>
<path d="M19.4173 16.5314H15.6351V19.8946H19.4173V16.5314Z" fill="#FF3838"/>
<path d="M24.4663 16.5314H20.6832V19.8946H24.4663V16.5314Z" fill="#FF3838"/>
<path d="M9.31687 21.0223H5.53467V24.3855H9.31687V21.0223Z" fill="#FF3838"/>
<path d="M14.3658 21.0223H10.5828V24.3855H14.3658V21.0223Z" fill="#FF3838"/>
<path d="M19.4173 21.0223H15.6351V24.3855H19.4173V21.0223Z" fill="#FF3838"/>
<path d="M24.4663 21.0223H20.6832V24.3855H24.4663V21.0223Z" fill="#FF3838"/>
</svg>
