<svg width="28" height="28" viewBox="0 0 28 28" fill="none" xmlns="http://www.w3.org/2000/svg">
<path d="M14 0C6.2804 0 0 6.2804 0 14C0 21.7196 6.2804 28 14 28C21.7196 28 28 21.7196 28 14C28 6.2804 21.7196 0 14 0ZM14 25.021C7.92306 25.021 2.97867 20.0772 2.97867 14C2.97867 7.92277 7.92306 2.97896 14 2.97896C20.0769 2.97896 25.0213 7.92277 25.0213 14C25.0213 20.0772 20.0769 25.021 14 25.021Z" fill="#FF3838"/>
<path d="M21.2962 13.5677H15.0046V6.00287C15.0046 5.36627 14.4884 4.85013 13.8518 4.85013C13.2152 4.85013 12.6991 5.36627 12.6991 6.00287V14.7204C12.6991 15.357 13.2152 15.8732 13.8518 15.8732H21.2962C21.9328 15.8732 22.449 15.357 22.449 14.7204C22.449 14.0838 21.9328 13.5677 21.2962 13.5677Z" fill="#FF3838"/>
</svg>
