<svg width="258" height="80" viewBox="0 0 258 80" fill="none" xmlns="http://www.w3.org/2000/svg">
<path d="M40.5888 65.8928C44.3938 62.8828 46.7725 61.0015 47.7238 60.249C59.4288 50.994 67.7263 38.1115 71.315 23.6278C71.3363 23.5453 71.3875 23.3365 71.47 23.004C71.0225 22.8365 70.7425 22.7328 70.63 22.6903C51.2363 15.4565 29.9025 15.3515 10.4375 22.394C10.2125 22.4753 9.65 22.6778 8.75 23.004C8.8125 23.3428 8.85125 23.5553 8.86625 23.6403C11.5263 38.2315 19.8 51.199 31.9125 59.7603C33.0688 60.5778 35.9613 62.6215 40.5888 65.8928Z" stroke="#3D3D3D" stroke-width="7"/>
<path d="M71.5625 22.8125C56.4749 35.4775 38.3724 43.6628 19.1732 46.4995C19.1165 46.5091 18.9754 46.5296 18.75 46.5625" stroke="#3D3D3D" stroke-width="7"/>
<path d="M123.032 18.2L117.584 35H112.496L109.28 24.776L105.92 35H100.832L95.384 18.2H100.28L103.664 28.928L107.216 18.2H111.584L114.968 29.024L118.496 18.2H123.032ZM124.87 21.992H129.43V35H124.87V21.992ZM127.15 20.552C126.318 20.552 125.646 20.32 125.134 19.856C124.622 19.392 124.366 18.816 124.366 18.128C124.366 17.44 124.622 16.864 125.134 16.4C125.646 15.936 126.318 15.704 127.15 15.704C127.982 15.704 128.654 15.928 129.166 16.376C129.678 16.808 129.934 17.368 129.934 18.056C129.934 18.776 129.678 19.376 129.166 19.856C128.654 20.32 127.982 20.552 127.15 20.552ZM140.866 21.776C142.482 21.776 143.778 22.256 144.754 23.216C145.746 24.176 146.242 25.624 146.242 27.56V35H141.682V28.304C141.682 26.528 140.97 25.64 139.546 25.64C138.762 25.64 138.13 25.896 137.65 26.408C137.186 26.92 136.954 27.688 136.954 28.712V35H132.394V21.992H136.738V23.408C137.25 22.88 137.858 22.48 138.562 22.208C139.266 21.92 140.034 21.776 140.866 21.776ZM163.284 21.992V32.624C163.284 35.04 162.628 36.848 161.316 38.048C160.004 39.264 158.116 39.872 155.652 39.872C154.372 39.872 153.172 39.728 152.052 39.44C150.932 39.152 149.98 38.728 149.196 38.168L150.852 34.976C151.38 35.408 152.044 35.744 152.844 35.984C153.66 36.24 154.46 36.368 155.244 36.368C156.444 36.368 157.324 36.104 157.884 35.576C158.444 35.048 158.724 34.264 158.724 33.224V32.792C157.844 33.816 156.556 34.328 154.86 34.328C153.708 34.328 152.644 34.072 151.668 33.56C150.692 33.032 149.916 32.296 149.34 31.352C148.764 30.392 148.476 29.288 148.476 28.04C148.476 26.808 148.764 25.72 149.34 24.776C149.916 23.816 150.692 23.08 151.668 22.568C152.644 22.04 153.708 21.776 154.86 21.776C156.716 21.776 158.076 22.376 158.94 23.576V21.992H163.284ZM155.94 30.704C156.756 30.704 157.428 30.456 157.956 29.96C158.5 29.464 158.772 28.824 158.772 28.04C158.772 27.256 158.508 26.624 157.98 26.144C157.452 25.648 156.772 25.4 155.94 25.4C155.108 25.4 154.42 25.648 153.876 26.144C153.348 26.624 153.084 27.256 153.084 28.04C153.084 28.824 153.356 29.464 153.9 29.96C154.444 30.456 155.124 30.704 155.94 30.704ZM112.664 47.2V64H107.912V57.448H101.432V64H96.68V47.2H101.432V53.512H107.912V47.2H112.664ZM122.76 60.736C123.384 60.736 123.92 60.648 124.368 60.472C124.832 60.296 125.296 60.008 125.76 59.608L128.136 62.104C126.904 63.512 125.064 64.216 122.616 64.216C121.096 64.216 119.76 63.928 118.608 63.352C117.456 62.776 116.56 61.976 115.92 60.952C115.296 59.928 114.984 58.768 114.984 57.472C114.984 56.192 115.296 55.048 115.92 54.04C116.544 53.016 117.4 52.216 118.488 51.64C119.592 51.064 120.824 50.776 122.184 50.776C123.448 50.776 124.6 51.04 125.64 51.568C126.696 52.08 127.536 52.84 128.16 53.848C128.784 54.84 129.096 56.024 129.096 57.4L119.808 59.176C120.304 60.216 121.288 60.736 122.76 60.736ZM122.208 54.016C121.424 54.016 120.784 54.264 120.288 54.76C119.792 55.24 119.512 55.936 119.448 56.848L124.728 55.816C124.568 55.272 124.264 54.84 123.816 54.52C123.368 54.184 122.832 54.016 122.208 54.016ZM131.198 50.992H135.758V64H131.198V50.992ZM133.478 49.552C132.646 49.552 131.974 49.32 131.462 48.856C130.95 48.392 130.694 47.816 130.694 47.128C130.694 46.44 130.95 45.864 131.462 45.4C131.974 44.936 132.646 44.704 133.478 44.704C134.31 44.704 134.982 44.928 135.494 45.376C136.006 45.808 136.262 46.368 136.262 47.056C136.262 47.776 136.006 48.376 135.494 48.856C134.982 49.32 134.31 49.552 133.478 49.552ZM143.786 64.216C142.186 64.216 140.938 63.808 140.042 62.992C139.162 62.16 138.722 60.976 138.722 59.44V46.192H143.282V59.2C143.282 59.68 143.402 60.048 143.642 60.304C143.898 60.56 144.25 60.688 144.698 60.688C145.066 60.688 145.41 60.608 145.73 60.448L145.922 63.88C145.234 64.104 144.522 64.216 143.786 64.216ZM147.558 50.992H152.118V64H147.558V50.992ZM149.838 49.552C149.006 49.552 148.334 49.32 147.822 48.856C147.31 48.392 147.054 47.816 147.054 47.128C147.054 46.44 147.31 45.864 147.822 45.4C148.334 44.936 149.006 44.704 149.838 44.704C150.67 44.704 151.342 44.928 151.854 45.376C152.366 45.808 152.622 46.368 152.622 47.056C152.622 47.776 152.366 48.376 151.854 48.856C151.342 49.32 150.67 49.552 149.838 49.552ZM169.073 50.992V61.624C169.073 64.04 168.417 65.848 167.105 67.048C165.793 68.264 163.905 68.872 161.441 68.872C160.161 68.872 158.961 68.728 157.841 68.44C156.721 68.152 155.769 67.728 154.985 67.168L156.641 63.976C157.169 64.408 157.833 64.744 158.633 64.984C159.449 65.24 160.249 65.368 161.033 65.368C162.233 65.368 163.113 65.104 163.673 64.576C164.233 64.048 164.513 63.264 164.513 62.224V61.792C163.633 62.816 162.345 63.328 160.649 63.328C159.497 63.328 158.433 63.072 157.457 62.56C156.481 62.032 155.705 61.296 155.129 60.352C154.553 59.392 154.265 58.288 154.265 57.04C154.265 55.808 154.553 54.72 155.129 53.776C155.705 52.816 156.481 52.08 157.457 51.568C158.433 51.04 159.497 50.776 160.649 50.776C162.505 50.776 163.865 51.376 164.729 52.576V50.992H169.073ZM161.729 59.704C162.545 59.704 163.217 59.456 163.745 58.96C164.289 58.464 164.561 57.824 164.561 57.04C164.561 56.256 164.297 55.624 163.769 55.144C163.241 54.648 162.561 54.4 161.729 54.4C160.897 54.4 160.209 54.648 159.665 55.144C159.137 55.624 158.873 56.256 158.873 57.04C158.873 57.824 159.145 58.464 159.689 58.96C160.233 59.456 160.913 59.704 161.729 59.704ZM178.963 60.736C179.587 60.736 180.123 60.648 180.571 60.472C181.035 60.296 181.499 60.008 181.963 59.608L184.339 62.104C183.107 63.512 181.267 64.216 178.819 64.216C177.299 64.216 175.963 63.928 174.811 63.352C173.659 62.776 172.763 61.976 172.123 60.952C171.499 59.928 171.187 58.768 171.187 57.472C171.187 56.192 171.499 55.048 172.123 54.04C172.747 53.016 173.603 52.216 174.691 51.64C175.795 51.064 177.027 50.776 178.387 50.776C179.651 50.776 180.803 51.04 181.843 51.568C182.899 52.08 183.739 52.84 184.363 53.848C184.987 54.84 185.299 56.024 185.299 57.4L176.011 59.176C176.507 60.216 177.491 60.736 178.963 60.736ZM178.411 54.016C177.627 54.016 176.987 54.264 176.491 54.76C175.995 55.24 175.715 55.936 175.651 56.848L180.931 55.816C180.771 55.272 180.467 54.84 180.019 54.52C179.571 54.184 179.035 54.016 178.411 54.016ZM195.874 50.776C197.49 50.776 198.786 51.256 199.762 52.216C200.754 53.176 201.25 54.624 201.25 56.56V64H196.69V57.304C196.69 55.528 195.978 54.64 194.554 54.64C193.77 54.64 193.138 54.896 192.658 55.408C192.194 55.92 191.962 56.688 191.962 57.712V64H187.402V50.992H191.746V52.408C192.258 51.88 192.866 51.48 193.57 51.208C194.274 50.92 195.042 50.776 195.874 50.776ZM208.84 64.216C207.752 64.216 206.68 64.096 205.624 63.856C204.568 63.6 203.72 63.272 203.08 62.872L204.448 59.752C205.04 60.12 205.744 60.416 206.56 60.64C207.376 60.848 208.184 60.952 208.984 60.952C209.72 60.952 210.24 60.88 210.544 60.736C210.864 60.576 211.024 60.352 211.024 60.064C211.024 59.776 210.832 59.576 210.448 59.464C210.08 59.336 209.488 59.216 208.672 59.104C207.632 58.976 206.744 58.808 206.008 58.6C205.288 58.392 204.664 58.008 204.136 57.448C203.608 56.888 203.344 56.104 203.344 55.096C203.344 54.264 203.592 53.528 204.088 52.888C204.584 52.232 205.304 51.72 206.248 51.352C207.208 50.968 208.352 50.776 209.68 50.776C210.624 50.776 211.56 50.872 212.488 51.064C213.416 51.256 214.192 51.528 214.816 51.88L213.448 54.976C212.296 54.336 211.048 54.016 209.704 54.016C208.984 54.016 208.456 54.104 208.12 54.28C207.784 54.44 207.616 54.656 207.616 54.928C207.616 55.232 207.8 55.448 208.168 55.576C208.536 55.688 209.144 55.808 209.992 55.936C211.064 56.096 211.952 56.28 212.656 56.488C213.36 56.696 213.968 57.08 214.48 57.64C215.008 58.184 215.272 58.952 215.272 59.944C215.272 60.76 215.024 61.496 214.528 62.152C214.032 62.792 213.296 63.296 212.32 63.664C211.36 64.032 210.2 64.216 208.84 64.216ZM224.197 60.736C224.821 60.736 225.357 60.648 225.805 60.472C226.269 60.296 226.733 60.008 227.197 59.608L229.573 62.104C228.341 63.512 226.501 64.216 224.053 64.216C222.533 64.216 221.197 63.928 220.045 63.352C218.893 62.776 217.997 61.976 217.357 60.952C216.733 59.928 216.421 58.768 216.421 57.472C216.421 56.192 216.733 55.048 217.357 54.04C217.981 53.016 218.837 52.216 219.925 51.64C221.029 51.064 222.261 50.776 223.621 50.776C224.885 50.776 226.037 51.04 227.077 51.568C228.133 52.08 228.973 52.84 229.597 53.848C230.221 54.84 230.533 56.024 230.533 57.4L221.245 59.176C221.741 60.216 222.725 60.736 224.197 60.736ZM223.645 54.016C222.861 54.016 222.221 54.264 221.725 54.76C221.229 55.24 220.949 55.936 220.885 56.848L226.165 55.816C226.005 55.272 225.701 54.84 225.253 54.52C224.805 54.184 224.269 54.016 223.645 54.016ZM239.596 60.736C240.22 60.736 240.756 60.648 241.204 60.472C241.668 60.296 242.132 60.008 242.596 59.608L244.972 62.104C243.74 63.512 241.9 64.216 239.452 64.216C237.932 64.216 236.596 63.928 235.444 63.352C234.292 62.776 233.396 61.976 232.756 60.952C232.132 59.928 231.82 58.768 231.82 57.472C231.82 56.192 232.132 55.048 232.756 54.04C233.38 53.016 234.236 52.216 235.324 51.64C236.428 51.064 237.66 50.776 239.02 50.776C240.284 50.776 241.436 51.04 242.476 51.568C243.532 52.08 244.372 52.84 244.996 53.848C245.62 54.84 245.932 56.024 245.932 57.4L236.644 59.176C237.14 60.216 238.124 60.736 239.596 60.736ZM239.044 54.016C238.26 54.016 237.62 54.264 237.124 54.76C236.628 55.24 236.348 55.936 236.284 56.848L241.564 55.816C241.404 55.272 241.1 54.84 240.652 54.52C240.204 54.184 239.668 54.016 239.044 54.016Z" fill="#4B4B4B"/>
<path d="M170.006 21.968H164.846V18.2H179.894V21.968H174.758V35H170.006V21.968ZM185.309 35.216C184.221 35.216 183.149 35.096 182.093 34.856C181.037 34.6 180.189 34.272 179.549 33.872L180.917 30.752C181.509 31.12 182.213 31.416 183.029 31.64C183.845 31.848 184.653 31.952 185.453 31.952C186.189 31.952 186.709 31.88 187.013 31.736C187.333 31.576 187.493 31.352 187.493 31.064C187.493 30.776 187.301 30.576 186.917 30.464C186.549 30.336 185.957 30.216 185.141 30.104C184.101 29.976 183.213 29.808 182.477 29.6C181.757 29.392 181.133 29.008 180.605 28.448C180.077 27.888 179.813 27.104 179.813 26.096C179.813 25.264 180.061 24.528 180.557 23.888C181.053 23.232 181.773 22.72 182.717 22.352C183.677 21.968 184.821 21.776 186.149 21.776C187.093 21.776 188.029 21.872 188.957 22.064C189.885 22.256 190.661 22.528 191.285 22.88L189.917 25.976C188.765 25.336 187.517 25.016 186.173 25.016C185.453 25.016 184.925 25.104 184.589 25.28C184.253 25.44 184.085 25.656 184.085 25.928C184.085 26.232 184.269 26.448 184.637 26.576C185.005 26.688 185.613 26.808 186.461 26.936C187.533 27.096 188.421 27.28 189.125 27.488C189.829 27.696 190.437 28.08 190.949 28.64C191.477 29.184 191.741 29.952 191.741 30.944C191.741 31.76 191.493 32.496 190.997 33.152C190.501 33.792 189.765 34.296 188.789 34.664C187.829 35.032 186.669 35.216 185.309 35.216ZM207.386 21.992V35H203.042V33.608C202.562 34.136 201.986 34.536 201.314 34.808C200.642 35.08 199.93 35.216 199.178 35.216C197.498 35.216 196.154 34.72 195.146 33.728C194.154 32.736 193.658 31.248 193.658 29.264V21.992H198.218V28.52C198.218 29.496 198.402 30.208 198.77 30.656C199.138 31.104 199.674 31.328 200.378 31.328C201.098 31.328 201.682 31.08 202.13 30.584C202.594 30.072 202.826 29.296 202.826 28.256V21.992H207.386ZM218.795 21.776C220.411 21.776 221.707 22.256 222.683 23.216C223.675 24.176 224.171 25.624 224.171 27.56V35H219.611V28.304C219.611 26.528 218.899 25.64 217.475 25.64C216.691 25.64 216.059 25.896 215.579 26.408C215.115 26.92 214.883 27.688 214.883 28.712V35H210.323V21.992H214.667V23.408C215.179 22.88 215.787 22.48 216.491 22.208C217.195 21.92 217.963 21.776 218.795 21.776Z" fill="#FECA57"/>
</svg>
